#N canvas 166 148 2212 1402 12;
#X obj 229 313 osc~;
#X obj 20 27 inlet;
#X text 62 26 fundamental;
#X obj 169 105 float \$1;
#X obj 170 150 + 1;
#X obj 222 472 outlet~;
#X obj 202 69 loadbang;
#X obj 301 368 *~;
#X obj 421 40 loadbang;
#X obj 123 218 *~;
#X obj 42 168 line~;
#X msg 82 116 \$1 50;
#X obj 375 549 line~;
#X obj 447 186 metro;
#X obj 430 89 t b b;
#X obj 451 226 tgl 15 0 empty empty empty 17 7 0 10 -262144 -1 -1 1
1;
#X obj 373 594 pow~ 2;
#X obj 454 255 sel 0 1;
#X obj 506 286 delay 1000;
#X msg 442 320 0;
#X obj 284 6 inlet;
#X obj 306 147 line~;
#X msg 346 95 \$1 50;
#X text 326 5 shift;
#X obj 149 261 +~;
#X obj 610 15 inlet;
#X obj 489 118 random 2000;
#X obj 520 159 + 1000;
#X text 655 14 cycle time min;
#X obj 602 91 t b f;
#X text 782 8 rise time delay (must be less than cycle time);
#X obj 789 45 inlet;
#X msg 505 325 1;
#X obj 479 466 pack f f;
#X msg 425 513 \$1 \$2;
#X obj 649 352 loadbang;
#X msg 635 386 1000;
#X obj 948 85 inlet;
#X text 950 61 rise/fall time;
#X obj 578 335 spigot;
#X obj 1034 168 inlet;
#X text 1036 145 pause;
#X msg 635 261 1;
#X connect 0 0 7 0;
#X connect 1 0 11 0;
#X connect 3 0 4 0;
#X connect 4 0 9 1;
#X connect 6 0 3 0;
#X connect 7 0 5 0;
#X connect 8 0 14 0;
#X connect 8 0 42 0;
#X connect 9 0 24 0;
#X connect 10 0 9 0;
#X connect 11 0 10 0;
#X connect 12 0 16 0;
#X connect 13 0 15 0;
#X connect 14 0 13 0;
#X connect 14 1 26 0;
#X connect 15 0 17 0;
#X connect 16 0 7 1;
#X connect 17 0 19 0;
#X connect 17 1 18 0;
#X connect 17 1 26 0;
#X connect 18 0 32 0;
#X connect 18 0 26 0;
#X connect 19 0 33 0;
#X connect 20 0 22 0;
#X connect 21 0 24 1;
#X connect 22 0 21 0;
#X connect 24 0 0 0;
#X connect 25 0 29 0;
#X connect 26 0 27 0;
#X connect 27 0 13 1;
#X connect 29 0 26 0;
#X connect 29 1 27 1;
#X connect 31 0 18 1;
#X connect 32 0 39 0;
#X connect 33 0 34 0;
#X connect 34 0 12 0;
#X connect 35 0 36 0;
#X connect 36 0 33 1;
#X connect 37 0 33 1;
#X connect 39 0 33 0;
#X connect 40 0 39 1;
#X connect 42 0 39 1;
